<svg xmlns="http://www.w3.org/2000/svg" xml:space="preserve" width="800" height="800" viewBox="0 0 512 512"><path d="M34.133 498.2h443.734V11.8H34.133z" style="fill:#00da6c" transform="translate(0 1)"/><path d="M477.867 498.2h25.6V11.8h-25.6z" style="fill:#00ad55" transform="translate(0 1)"/><path d="M8.533 498.2h25.6V11.8h-25.6z" style="fill:#fff" transform="translate(0 1)"/><path d="M512 507.733H0v-384c0-5.12 3.413-8.533 8.533-8.533s8.533 3.413 8.533 8.533v366.933h477.867v-76.8c0-5.12 3.413-8.533 8.533-8.533 5.12 0 8.533 3.413 8.533 8.533v93.867zM503.467 345.6c-5.12 0-8.533-3.413-8.533-8.533V21.333H17.067v34.133c0 5.12-3.413 8.533-8.533 8.533S0 60.587 0 55.467v-51.2h512v332.8c0 5.12-3.413 8.533-8.533 8.533zM17.067 89.6c0-5.12-3.413-8.533-8.533-8.533S0 84.48 0 89.6s3.413 8.533 8.533 8.533 8.534-3.413 8.534-8.533M503.467 388.267c-5.12 0-8.533-3.413-8.533-8.533V371.2c0-5.12 3.413-8.533 8.533-8.533 5.12 0 8.533 3.413 8.533 8.533v8.533c0 5.12-3.413 8.534-8.533 8.534z"/><path d="M409.6 123.733H221.867c-5.12 0-8.533-3.413-8.533-8.533s3.413-8.533 8.533-8.533H409.6c5.12 0 8.533 3.413 8.533 8.533s-3.413 8.533-8.533 8.533zM409.6 260.267H221.867c-5.12 0-8.533-3.413-8.533-8.533 0-5.12 3.413-8.533 8.533-8.533H409.6c5.12 0 8.533 3.413 8.533 8.533 0 5.119-3.413 8.533-8.533 8.533zM409.6 396.8H221.867c-5.12 0-8.533-3.413-8.533-8.533s3.413-8.533 8.533-8.533H409.6c5.12 0 8.533 3.413 8.533 8.533s-3.413 8.533-8.533 8.533zM136.533 123.733c-5.12 0-8.533-3.413-8.533-8.533V72.533c0-5.12 3.413-8.533 8.533-8.533s8.533 3.413 8.533 8.533V115.2c.001 5.12-3.413 8.533-8.533 8.533z"/><path d="M136.533 166.4c-5.12 0-8.533-3.413-8.533-8.533V115.2c0-5.12 3.413-8.533 8.533-8.533s8.533 3.413 8.533 8.533v42.667c.001 5.12-3.413 8.533-8.533 8.533zM102.4 115.2c-2.56 0-4.267-.853-5.973-2.56-3.413-3.413-3.413-8.533 0-11.947L130.56 66.56c3.413-3.413 8.533-3.413 11.947 0 3.413 3.413 3.413 8.533 0 11.947l-34.133 34.133c-1.707 1.707-3.414 2.56-5.974 2.56zM153.6 302.933h-42.667c-4.267 0-7.68-2.56-9.387-5.973-1.707-3.413-.853-7.68 1.707-11.093l38.4-45.227c4.267-5.12 4.267-11.093 1.707-15.36-.853-2.56-4.267-7.68-11.093-7.68-9.387 0-17.067 7.68-17.067 17.067 0 5.12-3.413 8.533-8.533 8.533s-8.533-3.413-8.533-8.533c0-18.773 15.36-34.133 34.133-34.133 11.947 0 22.187 6.827 27.307 17.92 5.12 11.093 3.413 23.893-4.267 33.28l-29.013 34.133H153.6c5.12 0 8.533 3.413 8.533 8.533 0 5.12-3.413 8.533-8.533 8.533zM128 396.8h-17.067c-5.12 0-8.533-3.413-8.533-8.533s3.413-8.533 8.533-8.533H128c5.12 0 8.533 3.413 8.533 8.533S133.12 396.8 128 396.8z"/><path d="M128 439.467h-17.067c-5.12 0-8.533-3.413-8.533-8.533s3.413-8.533 8.533-8.533H128c6.827 0 12.8-5.973 12.8-12.8 0-6.827-5.973-12.8-12.8-12.8v-17.067c6.827 0 12.8-5.973 12.8-12.8s-5.973-12.8-12.8-12.8h-17.067c-5.12 0-8.533-3.413-8.533-8.533 0-5.12 3.413-8.533 8.533-8.533H128c16.213 0 29.867 13.653 29.867 29.867 0 8.533-3.413 16.213-9.387 21.333 5.12 5.12 9.387 12.8 9.387 21.333 0 16.212-13.654 29.866-29.867 29.866z"/></svg>